<svg width="270" height="57" viewBox="0 0 270 57" fill="none" xmlns="http://www.w3.org/2000/svg">
<path d="M0.990723 25.439C1.05452 24.7531 1.38151 24.1709 1.97168 23.6924L14.5806 15.6294C14.9634 15.438 15.2983 15.3423 15.5854 15.3423C15.9523 15.3423 16.2952 15.43 16.6143 15.6055C17.2842 16.0042 17.6191 16.5944 17.6191 17.376C17.5553 18.1257 17.1247 18.7637 16.3271 19.29L6.68506 25.439C12.7782 29.4106 16.056 31.5241 16.5186 31.7793C16.5664 31.8112 16.6222 31.8431 16.686 31.875C17.3081 32.2897 17.6191 32.8719 17.6191 33.6216C17.6191 33.9725 17.5314 34.3075 17.356 34.6265C16.9731 35.2804 16.383 35.6074 15.5854 35.6074C15.1867 35.6074 14.7799 35.4718 14.3652 35.2007L1.97168 27.1377C1.93978 27.1217 1.8999 27.0978 1.85205 27.0659C1.27783 26.715 0.990723 26.1727 0.990723 25.439ZM29.0078 36.4209C29.0238 36.373 29.1673 36.0142 29.4385 35.3442C37.7327 14.465 42.0394 3.71436 42.3584 3.09229C42.7412 2.40641 43.2676 2.04753 43.9375 2.01562C44.2087 2.01562 44.4798 2.07943 44.751 2.20703C45.373 2.52604 45.6841 3.02848 45.6841 3.71436C45.6841 3.88981 45.5884 4.24072 45.397 4.76709C45.2056 5.29346 44.4479 7.22347 43.124 10.5571C36.1696 27.991 32.485 37.1387 32.0703 38C31.6556 38.7656 31.1133 39.1564 30.4434 39.1724C30.1882 39.1724 29.9329 39.1086 29.6777 38.981C29.0238 38.6779 28.6968 38.1994 28.6968 37.5454C28.6968 37.2902 28.8005 36.9154 29.0078 36.4209ZM73.438 36.0381C73.438 36.054 73.43 36.0859 73.4141 36.1338C73.2386 37.3779 72.6006 38 71.5 38C71.1172 38 70.7822 37.9043 70.4951 37.7129C69.8571 37.2982 69.5381 36.6203 69.5381 35.6792C69.5381 35.408 70.2878 28.8604 71.7871 16.0361C67.9909 24.0273 65.0081 30.3358 62.8389 34.9614C62.3763 35.9504 62.1131 36.5007 62.0493 36.6123C61.5708 37.5215 60.9328 37.984 60.1353 38C59.9757 38 59.8242 37.984 59.6807 37.9521C59.0107 37.8245 58.5003 37.2743 58.1494 36.3013L54.0103 15.9883C53.0851 23.2936 52.144 29.9769 51.187 36.0381C51.187 36.054 51.179 36.0859 51.1631 36.1338C50.9876 37.3779 50.3496 38 49.249 38C48.8662 38 48.5312 37.9043 48.2441 37.7129C47.6061 37.2982 47.2871 36.6203 47.2871 35.6792C47.2871 35.5197 48.4196 26.9144 50.6846 9.86328C51.2747 5.46094 51.5938 3.08431 51.6416 2.7334C51.6895 2.44629 51.7852 2.18311 51.9287 1.94385C52.3275 1.30583 52.9097 0.986816 53.6753 0.986816C53.8507 0.986816 54.0342 1.01074 54.2256 1.05859C54.9115 1.25 55.3022 1.60889 55.3979 2.13525C55.717 3.92171 56.7458 9.12158 58.4844 17.7349C59.7285 23.9715 60.526 27.999 60.877 29.8174L73.8208 2.37451C73.8846 2.21501 73.9723 2.04753 74.084 1.87207C74.5465 1.2819 75.1208 0.986816 75.8066 0.986816C76.1097 0.986816 76.3968 1.06657 76.668 1.22607C77.306 1.57699 77.6569 2.1193 77.7207 2.85303C77.6569 3.31559 77.5931 3.84993 77.5293 4.45605C75.1846 23.166 73.8208 33.6934 73.438 36.0381ZM85.1855 17.4956C86.2064 17.5116 86.7327 18.1336 86.7646 19.3618C86.7646 19.6011 86.7008 20.1195 86.5732 20.917C86.0309 24.474 85.7598 27.05 85.7598 28.645C85.7598 32.0903 86.637 33.8289 88.3916 33.8608C88.7744 33.8289 89.1413 33.7013 89.4922 33.478C90.9756 32.521 92.0921 29.4585 92.8418 24.2905C93.0332 22.9507 93.1688 21.4593 93.2485 19.8164C93.2645 19.6569 93.2725 19.5612 93.2725 19.5293C93.2884 19.4176 93.3044 19.314 93.3203 19.2183C93.5117 18.1496 94.1099 17.6152 95.1147 17.6152C95.3062 17.6152 95.4976 17.6471 95.689 17.7109C96.4067 17.9661 96.7656 18.652 96.7656 19.7686C96.7656 19.8962 96.7576 20.0716 96.7417 20.2949C96.7417 20.4385 96.7417 20.5342 96.7417 20.582L94.3252 38.2153C98.1693 35.3283 100.434 33.5897 101.12 32.9995C101.742 32.4891 102.356 32.2339 102.962 32.2339C103.17 32.2339 103.385 32.2977 103.608 32.4253C104.071 32.7284 104.302 33.1351 104.302 33.6455C104.286 34.3952 103.848 35.1369 102.986 35.8706C101.375 37.2424 98.265 39.6908 93.6553 43.2158L92.5786 51.0874C92.3075 52.9696 91.4461 54.3971 89.9946 55.3701C88.9738 56.04 87.929 56.375 86.8604 56.375C85.3929 56.375 84.0929 55.8247 82.9604 54.7241C81.8599 53.6235 81.3096 52.3874 81.3096 51.0156C81.3096 49.5641 81.6685 48.3838 82.3862 47.4746C82.7531 47.012 83.4948 46.366 84.6113 45.5366C84.7549 45.3771 86.6689 43.9336 90.3535 41.2061C90.5609 39.7705 90.7762 38.3748 90.9995 37.019C90.0744 37.4497 89.0057 37.665 87.7935 37.665C87.2192 37.665 86.6769 37.5933 86.1665 37.4497C83.3752 36.6043 81.9795 33.5339 81.9795 28.2383C81.9954 25.6064 82.2746 23.0464 82.8169 20.5581C83.2635 18.6281 84.0531 17.6073 85.1855 17.4956ZM89.1812 49.1973C89.1812 49.1973 89.3167 48.2163 89.5879 46.2544C87.945 47.4985 87.0597 48.1764 86.9321 48.2881C85.7837 49.1813 85.2015 49.9948 85.1855 50.7285C85.1855 50.9997 85.2334 51.2629 85.3291 51.5181C85.6003 52.2199 86.1107 52.5708 86.8604 52.5708C87.1475 52.5708 87.4027 52.5229 87.626 52.4272C88.4235 52.1242 88.9419 51.0475 89.1812 49.1973ZM123.73 7.97314C123.714 11.7694 122.255 14.9914 119.352 17.6392C116.608 20.1274 112.939 21.8581 108.346 22.8311L106.599 36.0381C106.583 36.1338 106.567 36.2295 106.551 36.3252C106.312 37.4417 105.682 38 104.661 38C104.278 38 103.943 37.9043 103.656 37.7129C103.018 37.2982 102.699 36.6203 102.699 35.6792C102.699 35.5675 104.151 24.5856 107.054 2.7334C107.086 2.46224 107.165 2.19906 107.293 1.94385C107.692 1.19417 108.314 0.819336 109.159 0.819336C110.627 0.548177 112.198 0.412598 113.873 0.412598C115.611 0.412598 117.166 0.62793 118.538 1.05859C121.999 2.15918 123.73 4.46403 123.73 7.97314ZM120.141 8.18848C120.141 8.10872 120.141 8.021 120.141 7.92529C119.998 5.30941 117.94 4.00146 113.968 4.00146C112.884 4.00146 111.783 4.08122 110.667 4.24072C110.571 5.1499 109.973 9.91113 108.872 18.5244C111.105 18.1895 113.211 17.4159 115.188 16.2036C118.49 14.1779 120.141 11.5062 120.141 8.18848ZM128.659 17.9023L129.018 17.9263C129.353 17.9422 129.68 17.9821 129.999 18.0459C132.933 18.6201 134.544 21.1722 134.832 25.7021H135.143C135.334 25.7021 135.533 25.6942 135.741 25.6782C137.224 25.5506 138.492 25.0721 139.545 24.2427C139.433 24.1948 139.314 24.131 139.186 24.0513C137.511 23.1102 136.674 21.6188 136.674 19.5771C136.674 18.9072 136.841 18.2692 137.176 17.6631C137.878 16.4508 138.995 15.8447 140.526 15.8447C141.307 15.8447 142.049 16.0521 142.751 16.4668C143.899 17.1686 144.474 18.1496 144.474 19.4097C144.474 20.0477 144.426 20.7017 144.33 21.3716C144.952 21.0526 145.798 20.5103 146.866 19.7446C147.169 19.5373 147.528 19.4256 147.943 19.4097C148.453 19.4097 148.924 19.5532 149.354 19.8403C149.785 20.1274 150 20.4066 150 20.6777C150 20.7734 149.945 21.0286 149.833 21.4434C149.004 24.1868 148.589 26.5954 148.589 28.6689C148.589 29.307 148.724 30.5033 148.996 32.2578C148.996 32.2738 149.004 32.2897 149.02 32.3057C149.498 33.805 150.176 34.5547 151.053 34.5547C151.548 34.5228 152.353 34.1719 153.47 33.502C154.443 32.848 155.168 32.521 155.647 32.521C155.886 32.521 156.125 32.6007 156.365 32.7603C156.795 33.0633 157.011 33.4302 157.011 33.8608C156.963 34.7381 156.341 35.6393 155.145 36.5645C153.709 37.6012 152.186 38.1196 150.575 38.1196C150.383 38.1196 150.184 38.1117 149.977 38.0957C148.206 37.8724 146.906 36.8516 146.077 35.0332C145.486 33.9964 145.191 32.1621 145.191 29.5303C145.191 27.7598 145.343 25.9574 145.646 24.123C144.912 24.474 144.067 24.7052 143.11 24.8169C141.626 27.0978 138.867 28.4058 134.832 28.7407C134.704 30.7824 134.313 32.529 133.659 33.9805C132.479 36.6283 130.605 37.9521 128.037 37.9521H127.869C126.88 37.9521 125.899 37.6331 124.926 36.9951C122.693 35.4958 121.577 32.832 121.577 29.0039C121.577 24.5218 122.709 21.3237 124.974 19.4097C126.107 18.4526 127.295 17.9502 128.539 17.9023H128.659ZM131.434 28.5254C130.7 28.3499 129.991 28.0947 129.305 27.7598C127.566 26.8665 126.378 25.6463 125.74 24.0991C125.261 25.4709 125.022 27.0659 125.022 28.8843C125.022 29.6659 125.094 30.4155 125.237 31.1333C125.7 33.3026 126.673 34.3872 128.156 34.3872C128.396 34.3872 128.627 34.3473 128.85 34.2676C130.302 33.7891 131.163 31.875 131.434 28.5254ZM128.97 22.3047C128.97 22.6556 129.097 23.0464 129.353 23.4771C129.863 24.3065 130.573 24.8727 131.482 25.1758C131.434 24.6654 131.37 24.1868 131.291 23.7402C130.972 22.2409 130.461 21.4912 129.759 21.4912C129.68 21.4912 129.6 21.4992 129.52 21.5151C129.153 21.6427 128.97 21.9059 128.97 22.3047ZM139.545 19.7446C139.561 20.6379 140.119 21.2759 141.22 21.6587C141.379 21.1004 141.459 20.4624 141.459 19.7446C141.459 19.6489 141.443 19.5452 141.411 19.4336C141.299 19.0029 141.004 18.7876 140.526 18.7876C140.446 18.7876 140.35 18.8035 140.239 18.8354C139.776 18.9631 139.545 19.2661 139.545 19.7446ZM156.939 11.5142C156.955 11.5142 157.035 11.5142 157.178 11.5142C158.071 11.5461 158.877 11.562 159.595 11.562L160.647 4.16895C160.711 3.67448 160.791 3.25977 160.887 2.9248C161.174 1.87207 161.756 1.3457 162.633 1.3457C162.809 1.3457 162.984 1.36165 163.16 1.39355C163.893 1.56901 164.26 2.26286 164.26 3.4751C164.26 3.85791 163.941 6.55355 163.303 11.562H165.815C166.246 11.562 166.621 11.6497 166.94 11.8252C167.498 12.1602 167.777 12.6546 167.777 13.3086C167.777 13.5957 167.706 13.8669 167.562 14.1221C167.195 14.7282 166.597 15.0312 165.768 15.0312H162.801C161.557 24.6016 160.935 29.9689 160.935 31.1333C160.935 31.867 161.086 32.5529 161.389 33.1909C161.836 34.1479 162.426 34.6265 163.16 34.6265C163.335 34.6265 163.519 34.6025 163.71 34.5547C164.141 34.443 164.755 34.0762 165.552 33.4541C166.334 32.832 166.988 32.521 167.514 32.521C167.737 32.521 167.953 32.5688 168.16 32.6646C168.734 32.9517 169.021 33.3903 169.021 33.9805C168.974 34.8099 168.36 35.6712 167.179 36.5645C165.744 37.6012 164.22 38.1196 162.609 38.1196C161.03 38.1037 159.738 37.4417 158.733 36.1338C157.713 34.7461 157.202 32.9995 157.202 30.894C157.202 30.4315 157.832 25.1439 159.092 15.0312H156.939C156.843 15.0312 156.748 15.0312 156.652 15.0312C155.551 14.9355 155.001 14.3613 155.001 13.3086C155.001 13.0215 155.049 12.7583 155.145 12.519C155.432 11.8491 156.03 11.5142 156.939 11.5142ZM172.61 17.9023C173.169 17.9183 173.695 17.9741 174.189 18.0698C176.646 18.5962 178.153 20.5103 178.711 23.812C179.014 23.6366 179.517 23.3096 180.219 22.8311C181.176 22.1771 181.902 21.8501 182.396 21.8501C182.635 21.8501 182.867 21.9219 183.09 22.0654C183.584 22.3844 183.832 22.8151 183.832 23.3574C183.816 23.8997 183.465 24.4979 182.779 25.1519C181.806 26.0451 180.546 26.8027 178.999 27.4248C178.983 29.9131 178.608 32.0186 177.874 33.7412C176.678 36.5485 174.716 37.9521 171.988 37.9521C171.015 37.9521 170.042 37.6411 169.069 37.019C166.82 35.5356 165.696 32.8639 165.696 29.0039C165.696 26.6751 166.087 24.5537 166.868 22.6396C168.096 19.625 170.01 18.0459 172.61 17.9023ZM175.601 28.0469C174.979 28.0309 174.389 27.9671 173.831 27.8555C171.725 27.4089 170.369 26.2923 169.763 24.5059C169.348 25.8457 169.141 27.3052 169.141 28.8843C169.141 29.6499 169.213 30.3916 169.356 31.1094C169.803 33.2946 170.776 34.3872 172.275 34.3872C172.77 34.3872 173.216 34.2357 173.615 33.9326C174.78 33.0394 175.442 31.0775 175.601 28.0469ZM175.242 24.793C175.242 24.793 175.354 24.793 175.577 24.793C175.338 22.6077 174.764 21.5072 173.854 21.4912C173.775 21.4912 173.695 21.4992 173.615 21.5151C173.264 21.6427 173.089 21.9059 173.089 22.3047C173.089 22.6556 173.145 22.9985 173.256 23.3335C173.607 24.3065 174.269 24.793 175.242 24.793ZM183.114 26.0132C183.13 26.0132 183.209 26.0132 183.353 26.0132C184.326 26.0291 185.195 26.0371 185.961 26.0371L187.468 15.9644C188.92 6.26644 191.855 1.40951 196.273 1.39355C197.15 1.39355 197.916 1.52913 198.57 1.80029C200.292 2.50212 201.154 3.99349 201.154 6.27441C201.154 7.11979 201.05 8.00505 200.843 8.93018C200.109 12.2638 198.211 15.7331 195.148 19.3379C193.218 21.6188 191.416 23.3016 189.741 24.3862L189.502 26.0371H191.966C192.365 26.0371 192.724 26.1169 193.043 26.2764C193.633 26.5794 193.928 27.0819 193.928 27.7837C193.928 28.0708 193.856 28.3499 193.713 28.6211C193.346 29.2113 192.756 29.5063 191.942 29.5063H189L187.875 37.4019C192.054 34.2277 194.287 32.513 194.574 32.2578C195.212 31.7474 195.826 31.4922 196.417 31.4922C196.624 31.4922 196.839 31.564 197.062 31.7075C197.525 32.0265 197.756 32.4333 197.756 32.9277C197.74 33.6455 197.302 34.3872 196.44 35.1528C194.75 36.5565 191.663 38.981 187.181 42.4263L186.033 50.3696C185.793 51.9647 185.195 53.2248 184.238 54.1499C183.17 55.1548 181.854 55.6572 180.291 55.6572C178.839 55.6572 177.555 55.1069 176.438 54.0063C175.322 52.9058 174.764 51.6616 174.764 50.2739C174.764 48.9341 175.075 47.8255 175.697 46.9482C176.064 46.4378 176.781 45.7759 177.85 44.9624C177.866 44.9465 177.922 44.9066 178.018 44.8428C179.054 44.0612 180.984 42.6097 183.808 40.4883L185.458 29.5063H183.114C182.97 29.5063 182.835 29.4984 182.707 29.4824C181.67 29.3548 181.152 28.7886 181.152 27.7837C181.152 27.5444 181.184 27.3211 181.248 27.1138C181.519 26.38 182.141 26.0132 183.114 26.0132ZM196.321 5.00635C194.965 5.0542 193.809 6.17871 192.852 8.37988C192.022 10.3258 191.296 13.5239 190.674 17.9741C190.579 18.7397 190.507 19.2502 190.459 19.5054C191.528 18.4845 192.636 17.1766 193.785 15.5815C196.369 12.0086 197.661 8.986 197.661 6.51367C197.661 6.38607 197.629 6.23454 197.565 6.05908C197.326 5.35726 196.911 5.00635 196.321 5.00635ZM182.611 48.4556C182.611 48.4556 182.747 47.4826 183.018 45.5366C181.359 46.7967 180.482 47.4746 180.386 47.5703C179.238 48.4157 178.656 49.2292 178.64 50.0107C178.64 50.2819 178.688 50.5371 178.783 50.7764C179.054 51.4782 179.557 51.8291 180.291 51.8291C180.578 51.8291 180.849 51.7812 181.104 51.6855C181.886 51.3665 182.388 50.2899 182.611 48.4556ZM204.767 17.9023C205.325 17.9183 205.851 17.9741 206.346 18.0698C208.802 18.5962 210.309 20.5103 210.868 23.812C211.171 23.6366 211.673 23.3096 212.375 22.8311C213.332 22.1771 214.058 21.8501 214.552 21.8501C214.792 21.8501 215.023 21.9219 215.246 22.0654C215.741 22.3844 215.988 22.8151 215.988 23.3574C215.972 23.8997 215.621 24.4979 214.935 25.1519C213.962 26.0451 212.702 26.8027 211.155 27.4248C211.139 29.9131 210.764 32.0186 210.03 33.7412C208.834 36.5485 206.872 37.9521 204.145 37.9521C203.172 37.9521 202.199 37.6411 201.226 37.019C198.977 35.5356 197.852 32.8639 197.852 29.0039C197.852 26.6751 198.243 24.5537 199.024 22.6396C200.253 19.625 202.167 18.0459 204.767 17.9023ZM207.757 28.0469C207.135 28.0309 206.545 27.9671 205.987 27.8555C203.881 27.4089 202.526 26.2923 201.919 24.5059C201.505 25.8457 201.297 27.3052 201.297 28.8843C201.297 29.6499 201.369 30.3916 201.513 31.1094C201.959 33.2946 202.932 34.3872 204.432 34.3872C204.926 34.3872 205.373 34.2357 205.771 33.9326C206.936 33.0394 207.598 31.0775 207.757 28.0469ZM207.398 24.793C207.398 24.793 207.51 24.793 207.733 24.793C207.494 22.6077 206.92 21.5072 206.011 21.4912C205.931 21.4912 205.851 21.4992 205.771 21.5151C205.421 21.6427 205.245 21.9059 205.245 22.3047C205.245 22.6556 205.301 22.9985 205.413 23.3335C205.764 24.3065 206.425 24.793 207.398 24.793ZM223.955 38C220.111 37.8405 217.264 35.4958 215.414 30.9658C214.042 27.5524 213.356 23.3734 213.356 18.4287C213.356 18.1735 213.372 17.8465 213.404 17.4478C213.627 14.0822 214.249 10.9958 215.27 8.18848C216.929 3.65853 219.274 1.39355 222.304 1.39355C222.464 1.39355 222.631 1.40153 222.807 1.41748C225.566 1.59294 226.946 3.19596 226.946 6.22656C226.946 9.52832 225.526 13.1969 222.687 17.2324C220.885 19.8005 218.994 21.882 217.017 23.4771C217.559 26.5076 218.157 28.7806 218.811 30.2959C220.023 33.1032 221.826 34.5068 224.218 34.5068C224.378 34.5068 224.545 34.4909 224.721 34.459C225.247 34.3633 225.981 33.9805 226.922 33.3105C227.831 32.6885 228.541 32.3774 229.051 32.3774C229.275 32.3774 229.49 32.4492 229.697 32.5928C230.16 32.9118 230.391 33.3424 230.391 33.8848C230.359 34.7142 229.769 35.5675 228.621 36.4448C227.185 37.4816 225.63 38 223.955 38ZM222.328 5.00635C221.387 5.0223 220.558 5.42904 219.84 6.22656C218.021 8.28418 217.025 12.5828 216.849 19.1226C217.806 18.1496 218.763 17.0011 219.72 15.6772C222.368 12.0565 223.692 9.00195 223.692 6.51367C223.692 6.38607 223.66 6.23454 223.596 6.05908C223.341 5.35726 222.918 5.00635 222.328 5.00635ZM231.181 19.4575C231.181 19.9201 231.101 20.917 230.941 22.4482C230.447 26.9782 230.2 29.7935 230.2 30.894C230.2 31.6278 230.351 32.3136 230.654 32.9517C231.101 33.9087 231.699 34.3872 232.449 34.3872C232.608 34.3872 232.776 34.3713 232.951 34.3394C233.414 34.2277 234.084 33.8529 234.961 33.2148C235.822 32.5768 236.516 32.2578 237.042 32.2578C237.266 32.2578 237.489 32.3376 237.712 32.4971C238.159 32.8161 238.382 33.2388 238.382 33.7651C238.319 34.5786 237.688 35.4399 236.492 36.3491C235.025 37.37 233.486 37.8804 231.875 37.8804C230.519 37.8804 229.394 37.4098 228.501 36.4688C227.161 35.0332 226.491 32.7523 226.491 29.626C226.491 28.5573 226.707 26.4678 227.137 23.3574C227.329 21.9059 227.464 20.8372 227.544 20.1514C227.56 20.0078 227.576 19.8643 227.592 19.7207C227.847 18.1257 228.501 17.3281 229.554 17.3281C229.729 17.3281 229.905 17.3441 230.08 17.376C230.814 17.5514 231.181 18.2453 231.181 19.4575ZM228.453 13.189C228.453 12.9019 228.517 12.6307 228.645 12.3755C228.964 11.7534 229.482 11.4424 230.2 11.4424C230.487 11.4424 230.758 11.5062 231.013 11.6338C231.635 11.9528 231.946 12.4712 231.946 13.189C231.946 13.4761 231.882 13.7472 231.755 14.0024C231.436 14.6245 230.917 14.9355 230.2 14.9355C229.913 14.9355 229.641 14.8717 229.386 14.7441C228.764 14.4251 228.453 13.9067 228.453 13.189ZM242.139 17.9023C242.697 17.9183 243.223 17.9741 243.718 18.0698C246.174 18.5962 247.681 20.5103 248.24 23.812C248.543 23.6366 249.045 23.3096 249.747 22.8311C250.704 22.1771 251.43 21.8501 251.924 21.8501C252.164 21.8501 252.395 21.9219 252.618 22.0654C253.113 22.3844 253.36 22.8151 253.36 23.3574C253.344 23.8997 252.993 24.4979 252.307 25.1519C251.334 26.0451 250.074 26.8027 248.527 27.4248C248.511 29.9131 248.136 32.0186 247.402 33.7412C246.206 36.5485 244.244 37.9521 241.517 37.9521C240.544 37.9521 239.571 37.6411 238.598 37.019C236.349 35.5356 235.224 32.8639 235.224 29.0039C235.224 26.6751 235.615 24.5537 236.396 22.6396C237.625 19.625 239.539 18.0459 242.139 17.9023ZM245.129 28.0469C244.507 28.0309 243.917 27.9671 243.359 27.8555C241.253 27.4089 239.898 26.2923 239.292 24.5059C238.877 25.8457 238.669 27.3052 238.669 28.8843C238.669 29.6499 238.741 30.3916 238.885 31.1094C239.331 33.2946 240.304 34.3872 241.804 34.3872C242.298 34.3872 242.745 34.2357 243.144 33.9326C244.308 33.0394 244.97 31.0775 245.129 28.0469ZM244.771 24.793C244.771 24.793 244.882 24.793 245.105 24.793C244.866 22.6077 244.292 21.5072 243.383 21.4912C243.303 21.4912 243.223 21.4992 243.144 21.5151C242.793 21.6427 242.617 21.9059 242.617 22.3047C242.617 22.6556 242.673 22.9985 242.785 23.3335C243.136 24.3065 243.798 24.793 244.771 24.793ZM269.366 25.439C269.302 26.1567 268.991 26.723 268.433 27.1377L256.04 35.2007C255.625 35.4559 255.202 35.5915 254.771 35.6074C254.405 35.6074 254.062 35.5117 253.743 35.3203C253.073 34.9375 252.738 34.3713 252.738 33.6216C252.754 32.8081 253.105 32.21 253.791 31.8271L263.624 25.439L254.078 19.29C254.046 19.2741 254.006 19.2502 253.958 19.2183C253.145 18.7716 252.738 18.1576 252.738 17.376C252.738 17.0091 252.833 16.6582 253.025 16.3232C253.424 15.6693 254.006 15.3423 254.771 15.3423C255.011 15.3423 255.362 15.438 255.824 15.6294L268.433 23.6924C268.481 23.7243 268.537 23.7642 268.601 23.812C269.111 24.2427 269.366 24.785 269.366 25.439Z" fill="#03A9F4"/>
</svg>
